<?xml version="1.0" standalone="no"?>
<!DOCTYPE svg PUBLIC "-//W3C//DTD SVG 20010904//EN"
 "http://www.w3.org/TR/2001/REC-SVG-20010904/DTD/svg10.dtd">
<svg version="1.0" xmlns="http://www.w3.org/2000/svg"
 width="216.000000pt" height="216.000000pt" viewBox="0 0 216.000000 216.000000"
 preserveAspectRatio="xMidYMid meet">
<metadata>
Created by potrace 1.11, written by Peter Selinger 2001-2013
</metadata>
<g transform="translate(0.000000,216.000000) scale(0.100000,-0.100000)"
fill="#000000" stroke="none">
<path d="M10 1626 c0 -2 97 -242 215 -535 118 -292 215 -536 215 -541 0 -6
120 -10 318 -10 174 0 461 -3 637 -7 310 -6 321 -6 322 13 1 10 99 257 218
548 118 291 213 531 211 533 -3 3 -548 -344 -761 -483 -22 -15 -24 -13 -125
163 -57 98 -121 209 -142 246 l-40 68 -140 -243 c-77 -133 -141 -244 -142
-246 -2 -1 -129 78 -282 176 -428 274 -504 322 -504 318z m1190 -331 c62 -108
111 -197 109 -199 -2 -2 -54 -36 -116 -75 -68 -44 -117 -70 -125 -65 -65 37
-218 139 -218 146 0 16 224 397 231 393 4 -3 57 -93 119 -200z m-440 -219 c0
-11 -248 -445 -265 -464 -9 -10 -49 80 -185 415 -95 235 -175 436 -178 446 -3
11 116 -60 312 -185 173 -112 316 -207 316 -212z m1249 357 c-11 -27 -90 -221
-176 -433 -85 -212 -158 -388 -161 -392 -6 -6 -273 446 -276 467 -1 7 614 404
626 405 4 0 -2 -21 -13 -47z m-1080 -457 c56 -36 88 -63 83 -68 -17 -17 -426
-277 -430 -273 -9 8 234 413 244 407 5 -4 52 -34 103 -66z m516 -108 c54 -95
108 -188 119 -207 l20 -35 -40 25 c-154 92 -403 255 -401 262 3 10 178 125
192 126 6 1 55 -77 110 -171z m-148 -129 c103 -66 195 -127 203 -135 12 -12
-48 -14 -425 -14 -270 0 -435 4 -429 9 5 5 103 70 219 144 158 101 214 132
227 126 9 -5 101 -63 205 -130z"/>
</g>
</svg>
